# xmcd CD database file
#
# Track frame offsets:
#	150
#	20883
#	39024
#	57563
#	77575
#	95644
#	112538
#	135564
#	148087
#	176739
#	196525
#	209609
#	230669
#
# Disc length: 3332 seconds
#
# Revision: 2
# Processed by: cddbd v1.5.2PL0 Copyright (c) Steve Scherf et al.
# Submitted via: CDex 1.70beta2
#
DISCID=af0d020d
DTITLE=妹尾美里 - La Blanche
DYEAR=2016
DGENRE=Jazz
TTITLE0=Chatora
TTITLE1=U
TTITLE2=Bonbori
TTITLE3=Utango
TTITLE4=Topaz
TTITLE5=Partire
TTITLE6=Pavo
TTITLE7=Frane
TTITLE8=Sommeiler
TTITLE9=Babel
TTITLE10=Neige
TTITLE11=La　Blanche
TTITLE12=Toma
EXTD=Powerd by gracenote music web API YEAR: 2016
EXTT0=
EXTT1=
EXTT2=
EXTT3=
EXTT4=
EXTT5=
EXTT6=
EXTT7=
EXTT8=
EXTT9=
EXTT10=
EXTT11=
EXTT12=
PLAYORDER=
